<svg xmlns="http://www.w3.org/2000/svg" viewBox="0 0 100 100" fill="none" stroke="currentColor" stroke-width="1.6" stroke-linecap="round" stroke-linejoin="round"><circle cx="50" cy="50" r="44"/><circle cx="50" cy="50" r="27.19"/><circle cx="50" cy="50" r="16.81"/><circle cx="50" cy="50" r="10.39"/><rect x="23.6" y="33.68" width="52.8" height="32.63" transform="rotate(91 50 50)"/><path d="M61.8 51.79L35.98 59.4L54.88 29.9L61.52 70.92L24.71 41.45L76.76 38.19L37.31 78.93L39.12 18.03L81.42 67.21L13.33 59L71.99 17.06" fill="none" opacity=".55"/><circle cx="61.8" cy="51.79" r="2.06" fill="currentColor" stroke="none"/><circle cx="35.98" cy="59.4" r="1.27" fill="currentColor" stroke="none"/><circle cx="54.88" cy="29.9" r="2.16" fill="currentColor" stroke="none"/><circle cx="61.52" cy="70.92" r="2.3" fill="currentColor" stroke="none"/><circle cx="24.71" cy="41.45" r="1.44" fill="currentColor" stroke="none"/><circle cx="76.76" cy="38.19" r="1.3" fill="currentColor" stroke="none"/><circle cx="37.31" cy="78.93" r="1.37" fill="currentColor" stroke="none"/><circle cx="39.12" cy="18.03" r="1.66" fill="currentColor" stroke="none"/><circle cx="81.42" cy="67.21" r="2.34" fill="currentColor" stroke="none"/><circle cx="13.33" cy="59" r="2.33" fill="currentColor" stroke="none"/><circle cx="71.99" cy="17.06" r="1.37" fill="currentColor" stroke="none"/><g transform="rotate(63 50 50)" opacity=".8"><path d="M12.6 50L15.72 55.59L18.83 60.19L21.95 62.99L25.07 63.49L28.18 61.61L31.3 57.68L34.42 52.39L37.53 46.67L40.65 41.55L43.77 37.92L46.88 36.42L50 37.33L53.12 40.47L56.23 45.3L59.35 50.96L62.47 56.45L65.58 60.8L68.7 63.24L71.82 63.34L74.93 61.08L78.05 56.86L81.17 51.43L84.28 45.75L87.4 40.82" fill="none"/><path d="M12.6 50L15.72 44.41L18.83 39.81L21.95 37.01L25.07 36.51L28.18 38.39L31.3 42.32L34.42 47.61L37.53 53.33L40.65 58.45L43.77 62.08L46.88 63.58L50 62.67L53.12 59.53L56.23 54.7L59.35 49.04L62.47 43.55L65.58 39.2L68.7 36.76L71.82 36.66L74.93 38.92L78.05 43.14L81.17 48.57L84.28 54.25L87.4 59.18" fill="none"/></g></svg>
