<svg xmlns="http://www.w3.org/2000/svg" viewBox="0 0 100 100" fill="none" stroke="currentColor" stroke-width="1.6" stroke-linecap="round" stroke-linejoin="round"><circle cx="50" cy="50" r="44"/><circle cx="50" cy="50" r="27.19"/><circle cx="50" cy="50" r="16.81"/><circle cx="50" cy="50" r="10.39"/><rect x="23.6" y="33.68" width="52.8" height="32.63" transform="rotate(182 50 50)"/><rect x="33.68" y="23.6" width="32.63" height="52.8" transform="rotate(218 50 50)"/><path d="M40.98 57.83L51.93 33.22L62.14 66.74L26.61 45.21L72.9 36.28L41.65 78.03L36.2 21.58L81.4 62.43L16.54 62.77L66.92 16.24L60.83 88.09" fill="none" opacity=".55"/><circle cx="40.98" cy="57.83" r="1.23" fill="currentColor" stroke="none"/><circle cx="51.93" cy="33.22" r="1.4" fill="currentColor" stroke="none"/><circle cx="62.14" cy="66.74" r="1.75" fill="currentColor" stroke="none"/><circle cx="26.61" cy="45.21" r="2.21" fill="currentColor" stroke="none"/><circle cx="72.9" cy="36.28" r="1.2" fill="currentColor" stroke="none"/><circle cx="41.65" cy="78.03" r="1.84" fill="currentColor" stroke="none"/><circle cx="36.2" cy="21.58" r="1.87" fill="currentColor" stroke="none"/><circle cx="81.4" cy="62.43" r="1.79" fill="currentColor" stroke="none"/><circle cx="16.54" cy="62.77" r="2.08" fill="currentColor" stroke="none"/><circle cx="66.92" cy="16.24" r="1.91" fill="currentColor" stroke="none"/><circle cx="60.83" cy="88.09" r="1.75" fill="currentColor" stroke="none"/><g transform="rotate(158 50 50)" opacity=".8"><path d="M12.6 50L15.72 55.59L18.83 60.19L21.95 62.99L25.07 63.49L28.18 61.61L31.3 57.68L34.42 52.39L37.53 46.67L40.65 41.55L43.77 37.92L46.88 36.42L50 37.33L53.12 40.47L56.23 45.3L59.35 50.96L62.47 56.45L65.58 60.8L68.7 63.24L71.82 63.34L74.93 61.08L78.05 56.86L81.17 51.43L84.28 45.75L87.4 40.82" fill="none"/><path d="M12.6 50L15.72 44.41L18.83 39.81L21.95 37.01L25.07 36.51L28.18 38.39L31.3 42.32L34.42 47.61L37.53 53.33L40.65 58.45L43.77 62.08L46.88 63.58L50 62.67L53.12 59.53L56.23 54.7L59.35 49.04L62.47 43.55L65.58 39.2L68.7 36.76L71.82 36.66L74.93 38.92L78.05 43.14L81.17 48.57L84.28 54.25L87.4 59.18" fill="none"/></g></svg>
