<svg xmlns="http://www.w3.org/2000/svg" viewBox="0 0 100 100" fill="none" stroke="currentColor" stroke-width="1.6" stroke-linecap="round" stroke-linejoin="round"><circle cx="50" cy="50" r="44"/><circle cx="50" cy="50" r="27.19"/><circle cx="50" cy="50" r="16.81"/><rect x="23.6" y="33.68" width="52.8" height="32.63" transform="rotate(73 50 50)"/><rect x="33.68" y="23.6" width="32.63" height="52.8" transform="rotate(109 50 50)"/><path d="M36.74 54.51L59.52 32.64L55.77 73.55L26.72 34.44L80.94 45.24L28.53 76.74L47.59 13.04L78.59 77.4" fill="none" opacity=".55"/><circle cx="36.74" cy="54.51" r="1.65" fill="currentColor" stroke="none"/><circle cx="59.52" cy="32.64" r="1.41" fill="currentColor" stroke="none"/><circle cx="55.77" cy="73.55" r="1.26" fill="currentColor" stroke="none"/><circle cx="26.72" cy="34.44" r="2.09" fill="currentColor" stroke="none"/><circle cx="80.94" cy="45.24" r="1.5" fill="currentColor" stroke="none"/><circle cx="28.53" cy="76.74" r="1.48" fill="currentColor" stroke="none"/><circle cx="47.59" cy="13.04" r="1.72" fill="currentColor" stroke="none"/><circle cx="78.59" cy="77.4" r="1.74" fill="currentColor" stroke="none"/><g transform="rotate(148 50 50)" opacity=".8"><path d="M12.6 50L15.72 55.59L18.83 60.19L21.95 62.99L25.07 63.49L28.18 61.61L31.3 57.68L34.42 52.39L37.53 46.67L40.65 41.55L43.77 37.92L46.88 36.42L50 37.33L53.12 40.47L56.23 45.3L59.35 50.96L62.47 56.45L65.58 60.8L68.7 63.24L71.82 63.34L74.93 61.08L78.05 56.86L81.17 51.43L84.28 45.75L87.4 40.82" fill="none"/><path d="M12.6 50L15.72 44.41L18.83 39.81L21.95 37.01L25.07 36.51L28.18 38.39L31.3 42.32L34.42 47.61L37.53 53.33L40.65 58.45L43.77 62.08L46.88 63.58L50 62.67L53.12 59.53L56.23 54.7L59.35 49.04L62.47 43.55L65.58 39.2L68.7 36.76L71.82 36.66L74.93 38.92L78.05 43.14L81.17 48.57L84.28 54.25L87.4 59.18" fill="none"/></g></svg>
